<?xml version="1.0" encoding="UTF-8"?>
<svg id="_레이어_2" data-name="레이어 2" xmlns="http://www.w3.org/2000/svg" viewBox="0 0 544.25 544.25">
  <defs>
    <style>
      .cls-1 {
        fill: #fff;
      }

      .cls-2 {
        fill: #6d5ef1;
      }
    </style>
  </defs>
  <g id="_레이어_1-2" data-name="레이어 1">
    <g>
      <rect class="cls-2" width="544.25" height="544.25"/>
      <g>
        <path class="cls-1" d="M192.13,394.06c-2.51,2.95-6.16,4.24-10.18,4.01-6.09-.34-11.61-4.53-13.22-10.52-1.16-4.32.61-8.64,3.89-11.61,14-12.7,26.29-26.86,36.6-42.76,5.75-8.86,10.69-17.83,14.65-27.61,2.55-6.3,3.92-12.85,3.04-19.63-.96-7.36-4.39-14.04-9.29-19.52-4.64-5.2-9.46-9.66-14.97-14-12.28-9.65-25.21-18.02-39.11-25.8,2.26,3.35,5.34,5.54,8.22,7.98l8.04,6.8c8.52,7.21,16.6,14.48,24.4,22.5,5.29,5.44,9.64,11.33,12.14,18.55,1.2,3.45.97,7.13.17,10.71-3.6-1.47-6.91-1.69-10.36-.59l-13.95,4.46c-20.95,6.7-45.3,8.21-65.79-.43-5.27-2.22-9.86-5.31-13.57-9.55-4.02-4.6-5.22-11.07-1.5-15.67,4.63-5.73,12.83-7.92,19.49-10.24-5.89-.81-11.13-1.23-16.55-2.65-9.5-2.49-17.8-7.34-24.48-14.51-6.46-6.93-10.91-18.24-3.05-24.63,6.05-4.91,15.79-3.86,23.9-3-4.09-3.1-7.94-5.96-11.33-9.71-9.21-10.16-14.45-22.86-11.66-36.55,2.87-14.1,15.7-22.61,29.73-21.5s26.72,9.58,35.26,19.86l6.3,7.58c-1.06-5.48-1.28-11.87,2.65-15.44,3.7-3.36,8.8-3.91,13.45-2.25,23.89,8.57,43.05,56.84,50.62,80.47l6.44,22.45c-.33-9.19-1.92-17.75-4.16-26.52l-8.16-27.23-8.3-23.84c-2.72-7.82-4.99-15.43-6.81-23.51-2.12-9.43-3.86-23.14,1.47-30.82s15.49-5.01,22.85,1.09c3.74,3.1,6.43,6.91,9.68,10.65-2.94-15.14-3.51-32.31,3.46-45.85,1.74-3.38,4.05-6.24,7.09-8.38,5.74-4.06,12.88-2.91,17.45,2.32,3.01,3.45,4.79,7.42,6.15,12.18,1.89-7.01,3.95-13.65,7.36-20.09,5.1-9.65,12.42-17.8,21.95-23.13,12.89-7.2,29.09-7.62,37.76,5.1,13.18,19.33,2.78,44.83-10.27,62.67l8.71-4.22c7.63-3.69,18.95-6.51,26.51-2.88s6.36,13.96,2.59,21.57c-3.72,7.51-9.02,13.79-15.24,19.39l-15.08,11.8c8.78-2.42,25.41-4.55,28.35,3.6,1.95,5.41-3.58,11.32-8.57,14.59l-13.35,8.73c-18.88,11.8-36.7,24.89-53.23,39.86-8.69,7.87-16.55,16.21-23.51,25.69-.52.44-.14.97.41.38,24.43-23.19,51.07-43.43,80.74-59.41,8.95-4.82,17.97-8.82,27.74-11.62,7.6-2.18,20.25-3.73,22.56,3.91.95,3.13.21,6.28-1.17,9.19l-5.79,9.36-.39.5c-.09.11-.08.37.03.35.24-.04.66-.24.83-.33,6.78-3.64,13.66-6.11,21.14-7.83,8.9-2.05,17.83-2.19,26.63.16,5.9,1.58,10.99,4.3,15.14,8.74,11.92,12.74,7.44,30.76-4.67,42.01-7.77,7.21-17.4,11.77-27.75,14.08l-13.63,2.15,12.32,4.75c4.38,1.69,8.18,4.38,11.15,7.95,3.51,4.23,3.59,9.8.5,14.32-5.28,7.73-16.39,11.66-25.66,13.31-10.02,1.79-20.03,1.81-29.96-.26l-9.03-1.88c-.26-.05-.69-.05-.74.15s.52.52.67.66l7.15,6.96c2.49,2.42,3.81,5.65,4.79,8.98,3.2,10.89-8.22,17.59-18.49,18.89-9.72,1.23-19.36.44-28.77-2.38-25.06-7.51-43.03-21.72-61.27-39.77-2.71-2.68-5.97-4.24-9.49-5.39-1.11-.36-2.09-.59-2.93-1.24,2.38-2.87,4.47-5.57,7.26-7.8,5.36-4.29,11.14-7.65,17.51-10.29l24.25-8.61,20.68-6.4,12.66-3.94,16.11-5.24,1.86-.73c.39.08.49-.47.14-.45-16.13,2.08-31.66,5.12-47.39,8.87-11.41,2.72-22.48,5.45-33.37,9.61l-13,6.16c-8.18,4.54-14.53,11.07-19.02,19.26l-9,18.83c-8.27,19.19-20.57,42.41-32.83,59.22l-12.61,14.83Z"/>
        <g>
          <path class="cls-1" d="M213.05,434.17v10.54c0,9.45-4.49,14.28-14.28,14.28h-8.5l-4.96-12.51h8.7c3.13,0,4.76-1.7,4.76-4.76v-4.55c0-3.06-1.63-4.76-4.76-4.76h-9.92v45.89h-14.28v-49.28l-4.49-9.11h33.44c9.79,0,14.28,4.83,14.28,14.28Z"/>
          <path class="cls-1" d="M237.66,434.04c8.36,0,14.41,3.6,14.41,10.6v33.65h-12.92v-2.72h-.14c-4.96,1.63-9.72,3.4-13.87,3.4-7.07,0-10.74-3.13-10.74-11.76v-7.41c0-6.8,3.67-10.26,10.74-10.26h14v-.75c0-2.38-.82-3.54-3.54-3.54h-17.27l-2.04-11.22h21.35ZM239.16,460.41h-9.86c-1.16,0-1.97.41-1.97,1.63v1.97c0,1.29.82,1.77,2.31,1.63,3.06-.27,6.05-.82,9.52-1.5v-3.74Z"/>
          <path class="cls-1" d="M289.53,466.67c0,8.16-5.1,11.62-16.93,11.62h-16.11v-11.22h15.7c3.4,0,4.69-.48,4.69-1.7,0-1.7-.75-2.45-8.77-5.44-10.13-3.74-11.96-6.93-11.96-14.62s5.03-11.35,16.59-11.35h13.6l2.38,11.22h-15.57c-3.19,0-4.42.34-4.42,1.43,0,1.29.82,2.17,8.7,5.03,10.26,3.74,12.1,6.87,12.1,15.02Z"/>
          <path class="cls-1" d="M293.61,419.49l12.92-1.36v15.91h10.88l2.04,11.9h-12.92v14.75c0,4.49,1.84,5.71,5.85,5.71h6.39v11.9h-9.58c-10.67,0-15.57-5.1-15.57-14.48v-44.32Z"/>
          <path class="cls-1" d="M335.76,418.54v59.75h-12.92v-59.75h12.92Z"/>
          <path class="cls-1" d="M366.01,434.04h12.92v42.62c0,9.38-4.69,14.48-14.89,14.48h-18.97l-2.04-11.9h18.49c3.06,0,4.49-.95,4.49-4.35v-4.55h-.14c-5.64,1.5-12.37,3.4-17.33,3.4-4.69,0-6.66-2.24-6.66-8.36v-22.23l-4.49-9.11h17.4v23.59c0,1.77.88,2.31,2.31,2.11,2.85-.41,5.64-.88,8.9-1.5v-24.2Z"/>
        </g>
      </g>
    </g>
  </g>
</svg>