<?xml version="1.0" encoding="UTF-8"?>
<svg id="_레이어_2" data-name="레이어 2" xmlns="http://www.w3.org/2000/svg" viewBox="0 0 314.29 100.01">
  <defs>
    <style>
      .cls-1 {
        fill: #6d5ef1;
      }
    </style>
  </defs>
  <g id="_레이어_1-2" data-name="레이어 1">
    <g>
      <path class="cls-1" d="M245.66,86.81c-.64.75-1.57,1.08-2.59,1.02-1.55-.09-2.96-1.15-3.37-2.68-.3-1.1.15-2.2.99-2.96,3.56-3.23,6.69-6.84,9.32-10.89,1.46-2.26,2.72-4.54,3.73-7.03.65-1.61,1-3.27.77-5-.25-1.87-1.12-3.58-2.36-4.97s-2.41-2.46-3.81-3.56c-3.13-2.46-6.42-4.59-9.96-6.57.58.85,1.36,1.41,2.09,2.03l2.05,1.73c2.17,1.84,4.23,3.69,6.21,5.73,1.35,1.39,2.45,2.88,3.09,4.72.3.88.25,1.82.04,2.73-.92-.38-1.76-.43-2.64-.15l-3.55,1.14c-5.33,1.71-11.54,2.09-16.75-.11-1.34-.57-2.51-1.35-3.46-2.43-1.02-1.17-1.33-2.82-.38-3.99,1.18-1.46,3.27-2.02,4.96-2.61-1.5-.21-2.83-.31-4.21-.67-2.42-.63-4.53-1.87-6.23-3.69s-2.78-4.64-.78-6.27c1.54-1.25,4.02-.98,6.09-.76-1.04-.79-2.02-1.52-2.88-2.47-2.34-2.59-3.68-5.82-2.97-9.31s4-5.76,7.57-5.48,6.8,2.44,8.98,5.06l1.6,1.93c-.27-1.4-.33-3.02.67-3.93.94-.86,2.24-1,3.42-.57,6.08,2.18,10.96,14.47,12.89,20.49l1.64,5.71c-.08-2.34-.49-4.52-1.06-6.75l-2.08-6.93-2.11-6.07c-.69-1.99-1.27-3.93-1.73-5.99-.54-2.4-.98-5.89.38-7.85s3.94-1.28,5.82.28c.95.79,1.64,1.76,2.47,2.71-.75-3.86-.89-8.23.88-11.68.44-.86,1.03-1.59,1.8-2.13,1.46-1.03,3.28-.74,4.44.59.77.88,1.22,1.89,1.57,3.1.48-1.78,1.01-3.48,1.87-5.12,1.3-2.46,3.16-4.53,5.59-5.89,3.28-1.83,7.41-1.94,9.61,1.3,3.35,4.92.71,11.41-2.61,15.96l2.22-1.07c1.94-.94,4.82-1.66,6.75-.73s1.62,3.55.66,5.49-2.3,3.51-3.88,4.94l-3.84,3.01c2.24-.62,6.47-1.16,7.22.92.5,1.38-.91,2.88-2.18,3.71l-3.4,2.22c-4.81,3.01-9.35,6.34-13.55,10.15-2.21,2-4.21,4.13-5.99,6.54-.13.11-.04.25.1.1,6.22-5.9,13-11.06,20.56-15.13,2.28-1.23,4.58-2.25,7.06-2.96,1.93-.55,5.16-.95,5.75,1,.24.8.05,1.6-.3,2.34l-1.47,2.38-.1.13s-.02.09,0,.09c.06,0,.17-.06.21-.08,1.73-.93,3.48-1.56,5.38-1.99,2.27-.52,4.54-.56,6.78.04,1.5.4,2.8,1.1,3.86,2.23,3.04,3.24,1.89,7.83-1.19,10.7-1.98,1.84-4.43,3-7.07,3.58l-3.47.55,3.14,1.21c1.11.43,2.08,1.11,2.84,2.03.89,1.08.91,2.49.13,3.65-1.34,1.97-4.17,2.97-6.53,3.39-2.55.45-5.1.46-7.63-.07l-2.3-.48c-.07-.01-.18-.01-.19.04s.13.13.17.17l1.82,1.77c.63.62.97,1.44,1.22,2.29.82,2.77-2.09,4.48-4.71,4.81-2.48.31-4.93.11-7.32-.61-6.38-1.91-10.96-5.53-15.6-10.13-.69-.68-1.52-1.08-2.42-1.37-.28-.09-.53-.15-.74-.32.61-.73,1.14-1.42,1.85-1.99,1.37-1.09,2.84-1.95,4.46-2.62l6.18-2.19,5.27-1.63,3.22-1,4.1-1.33.47-.19c.1.02.12-.12.04-.11-4.11.53-8.06,1.3-12.07,2.26-2.91.69-5.72,1.39-8.5,2.45l-3.31,1.57c-2.08,1.15-3.7,2.82-4.84,4.9l-2.29,4.79c-2.11,4.88-5.24,10.8-8.36,15.08l-3.21,3.78Z"/>
      <g>
        <path class="cls-1" d="M47.72,43.04v10.54c0,9.45-4.49,14.28-14.28,14.28h-8.5l-4.96-12.51h8.7c3.13,0,4.76-1.7,4.76-4.76v-4.55c0-3.06-1.63-4.76-4.76-4.76h-9.92v45.89H4.49v-49.28L0,28.77h33.44c9.79,0,14.28,4.83,14.28,14.28Z"/>
        <path class="cls-1" d="M72.33,42.91c8.36,0,14.41,3.6,14.41,10.6v33.65h-12.92v-2.72h-.14c-4.96,1.63-9.72,3.4-13.87,3.4-7.07,0-10.74-3.13-10.74-11.76v-7.41c0-6.8,3.67-10.26,10.74-10.26h14v-.75c0-2.38-.82-3.54-3.54-3.54h-17.27l-2.04-11.22h21.35ZM73.83,69.28h-9.86c-1.16,0-1.97.41-1.97,1.63v1.97c0,1.29.82,1.77,2.31,1.63,3.06-.27,6.05-.82,9.52-1.5v-3.74Z"/>
        <path class="cls-1" d="M124.2,75.54c0,8.16-5.1,11.62-16.93,11.62h-16.11v-11.22h15.7c3.4,0,4.69-.48,4.69-1.7,0-1.7-.75-2.45-8.77-5.44-10.13-3.74-11.96-6.93-11.96-14.62s5.03-11.35,16.59-11.35h13.6l2.38,11.22h-15.57c-3.19,0-4.42.34-4.42,1.43,0,1.29.82,2.17,8.7,5.03,10.26,3.74,12.1,6.87,12.1,15.02Z"/>
        <path class="cls-1" d="M128.28,28.36l12.92-1.36v15.91h10.88l2.04,11.9h-12.92v14.75c0,4.49,1.84,5.71,5.85,5.71h6.39v11.9h-9.58c-10.67,0-15.57-5.1-15.57-14.48V28.36Z"/>
        <path class="cls-1" d="M170.43,27.41v59.75h-12.92V27.41h12.92Z"/>
        <path class="cls-1" d="M200.68,42.91h12.92v42.62c0,9.38-4.69,14.48-14.89,14.48h-18.97l-2.04-11.9h18.49c3.06,0,4.49-.95,4.49-4.35v-4.55h-.14c-5.64,1.5-12.37,3.4-17.33,3.4-4.69,0-6.66-2.24-6.66-8.36v-22.23l-4.49-9.11h17.4v23.59c0,1.77.88,2.31,2.31,2.11,2.85-.41,5.64-.88,8.9-1.5v-24.2Z"/>
      </g>
    </g>
  </g>
</svg>